<svg xmlns="http://www.w3.org/2000/svg" width="512" height="512" viewBox="0 0 512 512" version="1.1">
	<path d="M 53.288 6.250 C 45.596 13.470, 33.715 27.849, 27.248 37.762 C 7.454 68.105, -2.352 108.265, 0.959 145.421 L 2.277 160.217 5.889 159.619 C 7.875 159.291, 9.961 159.017, 10.525 159.011 C 11.198 159.004, 11.541 150.331, 11.525 133.750 C 11.502 110.931, 11.727 107.443, 13.859 97.520 C 20.607 66.117, 36.946 36.434, 58.861 15.768 C 62.787 12.065, 66 8.772, 66 8.451 C 66 7.327, 60.754 1, 59.821 1 C 59.304 1, 56.364 3.362, 53.288 6.250 M 199.230 2.038 C 197.343 2.796, 175.982 15.342, 135.500 39.467 C 131.650 41.761, 115.754 51.229, 100.175 60.505 C 68.801 79.188, 68 79.916, 68 89.724 C 68 93.948, 69.157 96.575, 77.597 111.514 C 89.753 133.029, 92.433 138.406, 93.815 144.051 C 94.879 148.400, 96.036 165.011, 99.524 226 C 100.389 241.125, 101.534 255.750, 102.069 258.500 C 103.746 267.129, 107.385 272.968, 122.661 291.540 C 173.107 352.870, 226.341 417.690, 260.600 459.500 C 292.202 498.068, 294.238 500.365, 299 502.819 C 305.416 506.125, 310.828 505.329, 320.175 499.704 C 324.204 497.279, 339.875 487.959, 355 478.992 C 370.125 470.025, 387.900 459.470, 394.500 455.537 C 401.100 451.603, 413.586 444.197, 422.247 439.078 C 439.172 429.075, 443.267 425.429, 445.067 418.763 C 446.500 413.453, 446.114 411.844, 437.692 388 C 434.099 377.825, 424.784 351.275, 416.993 329 C 391.627 256.473, 374.900 208.690, 371.487 199 C 369.646 193.775, 363.608 176.489, 358.070 160.587 C 352.531 144.685, 346.910 129.835, 345.579 127.587 C 342.093 121.699, 336.043 116.289, 323.250 107.622 C 317.062 103.430, 307.162 96.698, 301.250 92.661 C 295.337 88.625, 281.950 79.542, 271.500 72.476 C 261.050 65.410, 251.006 58.421, 249.180 56.945 C 243.903 52.678, 238.956 45.403, 228.003 25.804 C 222.377 15.737, 217.037 6.650, 216.137 5.612 C 212.672 1.615, 204.555 -0.100, 199.230 2.038 M 186 21.883 C 176.925 27.284, 162.300 35.975, 153.500 41.196 C 144.700 46.417, 124.320 58.512, 108.212 68.072 C 85.213 81.722, 78.793 85.975, 78.315 87.880 C 77.891 89.570, 78.713 92.154, 81.028 96.403 C 84.830 103.383, 101.140 132.337, 101.542 132.821 C 101.808 133.141, 229.352 57.632, 231.775 55.720 C 232.804 54.908, 232.787 54.403, 231.686 53.107 C 230.936 52.223, 226.352 44.300, 221.499 35.500 C 208.819 12.508, 208.463 11.994, 205.237 12.032 C 203.602 12.051, 195.857 16.017, 186 21.883 M 55.922 45.918 C 42.034 60.513, 32.686 79.218, 29.958 97.871 C 28.781 105.923, 28.952 127.293, 30.204 128.540 C 30.591 128.925, 32.954 128.934, 35.455 128.559 L 40.002 127.877 39.386 118.189 C 37.916 95.085, 46.267 71.692, 61.953 54.979 L 68.530 47.971 65.225 43.793 L 61.919 39.616 55.922 45.918 M 224 72.918 C 214.925 78.300, 199.999 87.158, 190.830 92.602 C 181.662 98.046, 158.603 111.725, 139.587 123 L 105.013 143.500 105.528 150.500 C 106.428 162.753, 109.902 221.950, 110.603 237 C 110.975 244.975, 111.554 252.249, 111.890 253.164 C 112.390 254.529, 118.178 251.447, 144 236.068 C 161.325 225.750, 187.875 209.968, 203 200.997 C 218.125 192.026, 237.700 180.408, 246.500 175.179 C 255.300 169.950, 269.025 161.797, 277 157.061 C 328.585 126.425, 329.976 125.547, 328.735 124.415 C 327.484 123.275, 324.825 121.459, 274 87.033 C 258.325 76.415, 244.375 66.694, 243 65.430 L 240.500 63.132 224 72.918 M 322 142.668 C 314.025 147.408, 297.150 157.448, 284.500 164.980 C 256.503 181.650, 237.953 192.671, 202 213.998 C 129.084 257.251, 116 265.162, 116 265.994 C 116 266.488, 121.062 273.039, 127.250 280.553 C 133.437 288.067, 144.125 301.078, 151 309.467 C 163.120 324.255, 191.080 358.287, 215.547 388.031 C 222.121 396.023, 241.675 419.856, 259 440.994 C 276.325 462.132, 293.229 482.593, 296.564 486.463 C 304.666 495.865, 305.815 495.956, 318.687 488.217 C 324.084 484.972, 340.875 474.990, 356 466.036 C 371.125 457.082, 385.525 448.514, 388 446.996 C 390.475 445.478, 401.390 438.987, 412.257 432.573 C 423.123 426.158, 432.743 419.796, 433.634 418.435 C 434.676 416.846, 435.065 414.806, 434.723 412.731 C 434.430 410.954, 429.385 395.775, 423.510 379 C 417.636 362.225, 406.313 329.825, 398.348 307 C 390.383 284.175, 382.357 261.225, 380.513 256 C 378.669 250.775, 370.870 228.500, 363.182 206.500 C 342.827 148.254, 337.689 133.997, 337.061 134.026 C 336.752 134.040, 329.975 137.929, 322 142.668 M 116.007 152.750 C 116.011 154.813, 116.905 171.800, 117.993 190.500 C 119.081 209.200, 119.978 226.637, 119.986 229.250 L 120 234 123.750 233.985 C 130.747 233.956, 130.479 235.895, 128.615 198.850 C 127.693 180.508, 126.660 161.787, 126.321 157.250 L 125.705 149 120.852 149 L 116 149 116.007 152.750 M 138.699 267.331 L 134.897 270.586 154.720 295.043 C 165.623 308.494, 181.483 328.050, 189.965 338.500 C 198.447 348.950, 213.764 367.850, 224.004 380.500 C 280.070 449.767, 304.330 479.528, 304.921 479.764 C 305.284 479.909, 307.094 478.466, 308.943 476.559 C 311.980 473.426, 312.169 472.901, 310.902 471.129 C 309.573 469.268, 297.313 454.115, 254.571 401.500 C 244.295 388.850, 227.862 368.600, 218.055 356.500 C 208.248 344.400, 192.013 324.375, 181.978 312 C 171.942 299.625, 159.180 283.787, 153.616 276.804 C 148.052 269.822, 143.275 264.101, 143 264.092 C 142.725 264.083, 140.789 265.540, 138.699 267.331 M 501.532 358.250 C 501.309 358.938, 500.928 367.825, 500.685 378 C 500.035 405.234, 496.147 421.580, 484.868 444.500 C 473.627 467.342, 456.040 488.323, 436.104 502.674 C 435.445 503.148, 440.958 511, 441.949 511 C 443.946 511, 458.022 498.829, 465.884 490.305 C 496.447 457.164, 512 416.171, 512 368.756 L 512 357 506.969 357 C 503.826 357, 501.785 357.469, 501.532 358.250 M 470.746 398.750 C 470.299 409.287, 469.672 413.150, 467.133 421.008 C 461.930 437.111, 450.861 452.989, 439.099 461.220 L 436.698 462.900 439.692 467.503 L 442.687 472.106 448.433 467.425 C 468.373 451.182, 482 421.321, 482 393.869 L 482 386 476.644 386 L 471.287 386 470.746 398.750" stroke="none" fill="black" fill-rule="evenodd"/>
</svg>